HIERARCHY
ROOT Hips
{
	OFFSET 0.00 0.00 0.00
	CHANNELS 6 Xposition Yposition Zposition Xrotation Yrotation Zrotation
	JOINT Spine
	{
		OFFSET 0.00000 4.88528 0.00000
		CHANNELS 3 Xrotation Yrotation Zrotation
		JOINT Head
		{
			OFFSET 0.00000 16.49416 0.00000
			CHANNELS 3 Xrotation Yrotation Zrotation
			End Site
			{
				OFFSET 0.00000 4.52755 0.00000
			}
		}
		JOINT LeftShoulder
		{
			OFFSET 0.00000 10.66345 0.00000
			CHANNELS 3 Xrotation Yrotation Zrotation
			JOINT LeftArm
			{
				OFFSET 7.53191 0.00000 0.00000
				CHANNELS 3 Xrotation Yrotation Zrotation
				JOINT LeftForeArm
				{
					OFFSET 10.22920 0.00000 0.00000
					CHANNELS 3 Yrotation Zrotation Xrotation
					JOINT LeftHand
					{
						OFFSET 8.67349 0.00000 0.00000
						CHANNELS 3 Xrotation Yrotation Zrotation
						JOINT LeftHandThumb1
						{
							OFFSET 0.00000 0.00000 0.00000
							CHANNELS 3 Xrotation Zrotation Yrotation
							End Site
							{
								OFFSET 0.00000 0.00000 3.93700
							}
						}
						End Site
						{
							OFFSET 3.93700 0.00000 0.00000
						}
					}
				}
			}
		}
		JOINT RightShoulder
		{
			OFFSET 0.00000 10.66345 0.00000
			CHANNELS 3 Xrotation Yrotation Zrotation
			JOINT RightArm
			{
				OFFSET -7.53191 0.00000 0.00000
				CHANNELS 3 Xrotation Yrotation Zrotation
				JOINT RightForeArm
				{
					OFFSET -10.22920 0.00000 0.00000
					CHANNELS 3 Yrotation Zrotation Xrotation
					JOINT RightHand
					{
						OFFSET -8.67349 0.00000 0.00000
						CHANNELS 3 Xrotation Yrotation Zrotation
						JOINT RightHandThumb1
						{
							OFFSET 0.00000 0.00000 0.00000
							CHANNELS 3 Xrotation Zrotation Yrotation
							End Site
							{
								OFFSET 0.00000 0.00000 3.93700
							}
						}
						End Site
						{
							OFFSET -3.93700 0.00000 0.00000
						}
					}
				}
			}
		}
	}
	JOINT LeftUpLeg
	{
		OFFSET 2.67219 0.00000 0.00000
		CHANNELS 3 Xrotation Yrotation Zrotation
		JOINT LeftLeg
		{
			OFFSET 0.00000 -16.26339 0.00000
			CHANNELS 3 Xrotation Yrotation Zrotation
			JOINT LeftFoot
			{
				OFFSET 0.00000 -14.32816 0.00000
				CHANNELS 3 Xrotation Yrotation Zrotation
				JOINT LeftToeBase
				{
					OFFSET 0.00000 -1.30219 4.85985
					CHANNELS 3 Xrotation Yrotation Zrotation
					End Site
					{
						OFFSET 0.00000 0.00000 2.95275
					}
				}
			}
		}
	}
	JOINT RightUpLeg
	{
		OFFSET -2.67219 0.00000 0.00000
		CHANNELS 3 Xrotation Yrotation Zrotation
		JOINT RightLeg
		{
			OFFSET 0.00000 -16.26339 0.00000
			CHANNELS 3 Xrotation Yrotation Zrotation
			JOINT RightFoot
			{
				OFFSET 0.00000 -14.32816 0.00000
				CHANNELS 3 Xrotation Yrotation Zrotation
				JOINT RightToeBase
				{
					OFFSET 0.00000 -1.30219 4.85985
					CHANNELS 3 Xrotation Yrotation Zrotation
					End Site
					{
						OFFSET 0.00000 0.00000 2.95275
					}
				}
			}
		}
	}
}
MOTION
Frames: 11
Frame Time: 0.008333
 -0.3774 32.8327 -1.2760 9.8693 0.8808 0.0944 -11.4417 -5.2539 -3.8030 19.9633 -1.8203 -0.3254 33.0341 31.8703 18.0533 -70.0882 -3.7937 -31.3829 1.7043 0.0000 4.4749 0.3315 -5.5125 3.4471 33.1476 -0.0000 26.2537 -6.7423 -4.4730 -30.1891 -18.6322 -2.7311 40.7209 1.8084 -0.0000 10.4080 -0.0834 5.8167 0.8234 32.8623 0.0000 -24.3270 -4.3534 -3.6565 -0.5179 -4.0219 -0.0000 -0.0000 -2.0704 12.9644 -11.2080 -5.7290 0.0000 0.0000 -5.0335 -1.3628 1.4353 -1.7887 0.0000 -0.0000 -8.5931 -11.6201 1.8720 2.5478 0.0000 0.0000
 -0.3710 32.8323 -1.2746 9.8002 0.9254 0.1068 -11.3682 -5.2988 -3.7981 19.9384 -1.8214 -0.3672 33.0493 31.8708 18.0498 -70.0133 -3.8860 -31.4184 1.7297 0.0000 4.3786 0.3255 -5.4821 3.4026 33.1476 -0.0000 26.2537 -6.7215 -4.4626 -30.1885 -18.6429 -2.7274 40.7213 1.8038 -0.0000 10.4558 -0.0924 5.6620 0.9370 32.8623 0.0000 -24.3270 -4.3029 -3.6578 -0.5490 -3.9909 -0.0000 -0.0000 -2.0824 12.9482 -11.2005 -5.6861 0.0000 -0.0000 -5.0396 -1.4211 1.4073 -1.5794 -0.0000 -0.0000 -8.9081 -12.1255 1.6185 2.8009 0.0000 -0.0000
 -0.3659 32.8315 -1.2724 9.7339 0.9735 0.1208 -11.2997 -5.3377 -3.8029 19.9148 -1.8332 -0.3911 33.0561 31.8654 18.0632 -69.9913 -3.9313 -31.4543 1.7661 0.0000 4.3115 0.3253 -5.5179 3.3795 33.1476 -0.0000 26.2537 -6.7040 -4.4705 -30.1899 -18.6187 -2.6835 40.7375 1.7922 -0.0000 10.4071 -0.0972 5.5723 1.0013 32.8623 0.0000 -24.3270 -4.2541 -3.6470 -0.5819 -3.9590 -0.0000 0.0000 -2.0918 12.9047 -11.1659 -5.7494 -0.0000 0.0000 -5.0384 -1.4978 1.3756 -1.3929 -0.0000 0.0000 -9.1908 -12.7044 1.3505 3.0229 -0.0000 0.0000
 -0.3599 32.8311 -1.2687 9.6781 1.0317 0.1366 -11.2539 -5.3761 -3.8063 19.9147 -1.8530 -0.4212 33.0625 31.8521 18.0829 -69.9788 -3.9630 -31.4939 1.7882 0.0000 4.3081 0.3208 -5.5221 3.3305 33.1476 -0.0000 26.2537 -6.6648 -4.4835 -30.1957 -18.6276 -2.6724 40.7424 1.7744 -0.0000 10.3878 -0.1006 5.5639 1.0375 32.8623 0.0000 -24.3270 -4.2200 -3.6317 -0.6201 -3.9184 0.0000 0.0000 -2.1111 12.8484 -11.0906 -5.6863 -0.0000 0.0000 -5.0441 -1.6069 1.3364 -1.2172 -0.0000 0.0000 -9.4378 -13.2814 1.0399 2.8857 -0.0000 -0.0000
 -0.3536 32.8310 -1.2634 9.6128 1.1019 0.1503 -11.1994 -5.4314 -3.8073 19.9172 -1.8654 -0.4494 33.0688 31.8306 18.0898 -70.0354 -3.9673 -31.5181 1.8351 0.0000 4.4097 0.3101 -5.4957 3.2346 33.1476 -0.0000 26.2537 -6.6617 -4.4635 -30.2035 -18.5830 -2.6828 40.7436 1.7888 -0.0000 10.3640 -0.1032 5.5490 1.0672 32.8623 0.0000 -24.3270 -4.1758 -3.6379 -0.6593 -3.8763 0.0000 0.0000 -2.1091 12.8067 -11.0491 -5.6226 0.0000 0.0000 -5.0231 -1.7574 1.2961 -1.0709 -0.0000 -0.0000 -9.6424 -13.6986 0.7715 2.9725 -0.0000 -0.0000
 -0.3483 32.8315 -1.2583 9.5613 1.1602 0.1567 -11.1636 -5.4650 -3.8049 19.9273 -1.8881 -0.4575 33.0573 31.8165 18.1218 -69.9958 -4.0094 -31.5656 1.8581 0.0000 4.3981 0.3089 -5.4883 3.2268 33.1476 -0.0000 26.2537 -6.6532 -4.4653 -30.2031 -18.5730 -2.6826 40.7407 1.7548 -0.0000 10.3210 -0.1054 5.7676 1.0484 32.8623 0.0000 -24.3270 -4.1400 -3.6356 -0.6883 -3.8415 0.0000 -0.0000 -2.1160 12.7710 -10.9917 -5.6921 -0.0000 -0.0000 -5.0114 -1.8893 1.2650 -0.9386 0.0000 0.0000 -9.8018 -13.9882 0.6329 3.0903 -0.0000 0.0000
 -0.3429 32.8322 -1.2515 9.5094 1.2254 0.1532 -11.1305 -5.4974 -3.7878 19.9449 -1.9106 -0.4751 33.0389 31.7876 18.1508 -69.9650 -4.0381 -31.6031 1.8807 0.0000 4.3857 0.3076 -5.5203 3.1944 33.1476 -0.0000 26.2537 -6.6391 -4.4920 -30.1985 -18.5849 -2.6696 40.7259 1.7286 -0.0000 10.2979 -0.1096 5.7803 1.0883 32.8623 0.0000 -24.3270 -4.1083 -3.6480 -0.7058 -3.7933 -0.0000 -0.0000 -2.1352 12.7367 -10.9588 -5.7204 -0.0000 0.0000 -4.9979 -2.0690 1.2458 -0.8031 0.0000 -0.0000 -9.9476 -14.0765 0.4921 3.1939 -0.0000 0.0000
 -0.3387 32.8330 -1.2441 9.4640 1.2769 0.1425 -11.1045 -5.5182 -3.7621 19.9663 -1.9441 -0.4831 33.0318 31.7673 18.1721 -69.9642 -4.0596 -31.6378 1.9125 0.0000 4.3430 0.3077 -5.4920 3.2117 33.1476 -0.0000 26.2537 -6.6466 -4.4907 -30.1949 -18.5508 -2.6765 40.7006 1.7186 -0.0000 10.3149 -0.1000 5.8535 0.9804 32.8623 0.0000 -24.3270 -4.0741 -3.6507 -0.7135 -3.7515 -0.0000 -0.0000 -2.1580 12.7119 -10.9408 -5.6865 0.0000 -0.0000 -4.9998 -2.2423 1.2394 -0.6481 0.0000 0.0000 -10.0792 -14.0639 0.3847 3.2392 0.0000 -0.0000
 -0.3359 32.8342 -1.2360 9.4153 1.3231 0.1300 -11.0808 -5.5347 -3.7369 19.9997 -1.9619 -0.4918 33.0084 31.7363 18.2020 -69.9212 -4.0831 -31.6576 1.9288 0.0000 4.3038 0.3065 -5.5311 3.1770 33.1476 -0.0000 26.2537 -6.6601 -4.4699 -30.1798 -18.5136 -2.6927 40.6573 1.6952 -0.0000 10.3205 -0.1087 5.8664 1.0633 32.8623 0.0000 -24.3270 -4.0393 -3.6275 -0.7162 -3.7046 0.0000 -0.0000 -2.1723 12.6609 -10.8933 -5.7297 -0.0000 0.0000 -4.9854 -2.3445 1.2432 -0.5275 0.0000 0.0000 -10.1722 -14.0869 0.2813 3.3097 -0.0000 0.0000
 -0.3323 32.8353 -1.2266 9.3768 1.3576 0.1271 -11.0720 -5.5369 -3.7211 20.0349 -1.9860 -0.4891 32.9951 31.7184 18.2138 -69.9256 -4.1144 -31.6734 1.9522 0.0000 4.3106 0.2958 -5.4637 3.1041 33.1476 -0.0000 26.2537 -6.6635 -4.4682 -30.1797 -18.5107 -2.7274 40.6369 1.6819 -0.0000 10.3503 -0.1093 5.8545 1.0717 32.8623 0.0000 -24.3270 -4.0019 -3.6280 -0.7260 -3.6749 0.0000 0.0000 -2.1842 12.6415 -10.8749 -5.7436 0.0000 -0.0000 -4.9620 -2.3610 1.2379 -0.4540 -0.0000 -0.0000 -10.2036 -14.1632 0.1565 3.2600 0.0000 0.0000
 -0.3289 32.8363 -1.2159 9.3425 1.3804 0.1235 -11.0730 -5.5206 -3.7080 20.0756 -2.0114 -0.4638 32.9563 31.6924 18.2562 -69.9113 -4.1153 -31.6938 1.9543 0.0000 4.3570 0.2915 -5.4728 3.0531 33.1476 -0.0000 26.2537 -6.6932 -4.4586 -30.2111 -18.4602 -2.7636 40.6620 1.6710 -0.0000 10.2844 -0.1279 5.5583 1.3206 32.8623 0.0000 -24.3270 -3.9645 -3.5751 -0.7376 -3.6503 -0.0000 -0.0000 -2.2010 12.5995 -10.8516 -5.7252 -0.0000 0.0000 -4.9331 -2.3448 1.2358 -0.4058 -0.0000 -0.0000 -10.2079 -14.2307 0.0705 3.2689 0.0000 -0.0000
